#N canvas 375 125 2104 1698 12;
#X obj 979 91 *~ 0.01;
#X obj 982 68 noise~;
#X obj 365 224 dac~ 1;
#X obj 415 178 tgl 19 0 empty empty empty 0 -10 0 12 #fcfcfc #000000 #000000 0 1;
#X obj 364 201 *~ 0.01;
#X obj 628 179 tgl 19 0 empty empty empty 0 -10 0 12 #fcfcfc #000000 #000000 0 1;
#X obj 577 202 *~ 0.01;
#X obj 515 110 tgl 19 0 empty empty empty 0 -10 0 12 #fcfcfc #000000 #000000 0 1;
#X obj 461 138 *~ 0.01;
#X obj 500 224 tgl 19 0 empty empty empty 0 -10 0 12 #fcfcfc #000000 #000000 0 1;
#X obj 451 244 *~ 0.01;
#X obj 361 265 tgl 19 0 empty empty empty 0 -10 0 12 #fcfcfc #000000 #000000 0 1;
#X obj 310 288 *~ 0.01;
#X obj 717 270 tgl 19 0 empty empty empty 0 -10 0 12 #fcfcfc #000000 #000000 0 1;
#X obj 666 293 *~ 0.01;
#X obj 425 379 tgl 19 0 empty empty empty 0 -10 0 12 #fcfcfc #000000 #000000 0 1;
#X obj 379 403 *~ 0.01;
#X obj 594 377 tgl 19 0 empty empty empty 0 -10 0 12 #fcfcfc #000000 #000000 0 1;
#X obj 552 400 *~ 0.01;
#X obj 572 224 dac~ 2;
#X obj 459 161 dac~ 3;
#X obj 447 268 dac~ 4, f 17;
#X obj 305 315 dac~ 5;
#X obj 667 315 dac~ 6;
#X obj 381 426 dac~ 7;
#X obj 549 421 dac~ 8;
#X obj 981 113 s~ nz;
#X obj 367 182 r~ nz;
#X obj 576 182 r~ nz;
#X obj 464 113 r~ nz;
#X obj 450 223 r~ nz;
#X obj 312 267 r~ nz;
#X obj 670 266 r~ nz;
#X obj 378 384 r~ nz;
#X obj 548 378 r~ nz;
#X obj 519 36 tgl 19 0 empty empty empty 0 -10 0 12 #fcfcfc #000000 #000000 0 1;
#X obj 462 59 *~ 0.01;
#X obj 458 37 r~ nz;
#X obj 455 84 dac~ 16;
#X obj 898 57 metro 444;
#X obj 894 30 tgl 19 0 empty empty empty 0 -10 0 12 #fcfcfc #000000 #000000 0 1;
#X obj 893 85 tgl 19 0 empty empty empty 0 -10 0 12 #fcfcfc #000000 #000000 0 1;
#X obj 892 112 sel 0;
#X msg 883 138 1;
#X msg 920 139 0;
#X obj 905 173 tgl 19 0 empty empty empty 0 -10 0 12 #fcfcfc #000000 #000000 0 1;
#X text 514 246 sub;
#X text 529 88 front;
#X text 346 137 l;
#X text 646 140 r;
#X text 217 277 side l;
#X text 740 288 side r;
#X text 376 454 back l;
#X text 551 450 back r;
#X obj 74 540 tgl 19 0 empty empty empty 0 -10 0 12 #fcfcfc #000000 #000000 0 1;
#X obj 28 564 *~ 0.01;
#X obj 147 543 tgl 19 0 empty empty empty 0 -10 0 12 #fcfcfc #000000 #000000 0 1;
#X obj 105 566 *~ 0.01;
#X obj 27 545 r~ nz;
#X obj 101 544 r~ nz;
#X obj 33 585 dac~ 11;
#X obj 103 586 dac~ 12;
#X obj 71 618 tgl 19 0 empty empty empty 0 -10 0 12 #fcfcfc #000000 #000000 0 1;
#X obj 25 642 *~ 0.01;
#X obj 144 621 tgl 19 0 empty empty empty 0 -10 0 12 #fcfcfc #000000 #000000 0 1;
#X obj 102 644 *~ 0.01;
#X obj 24 623 r~ nz;
#X obj 98 622 r~ nz;
#X obj 30 663 dac~ 13;
#X obj 100 664 dac~ 14;
#X obj 72 693 tgl 19 0 empty empty empty 0 -10 0 12 #fcfcfc #000000 #000000 0 1;
#X obj 26 717 *~ 0.01;
#X obj 145 696 tgl 19 0 empty empty empty 0 -10 0 12 #fcfcfc #000000 #000000 0 1;
#X obj 103 719 *~ 0.01;
#X obj 25 698 r~ nz;
#X obj 99 697 r~ nz;
#X obj 32 738 dac~ 15;
#X obj 101 739 dac~ 16;
#X obj 70 763 tgl 19 0 empty empty empty 0 -10 0 12 #fcfcfc #000000 #000000 0 1;
#X obj 24 787 *~ 0.01;
#X obj 143 766 tgl 19 0 empty empty empty 0 -10 0 12 #fcfcfc #000000 #000000 0 1;
#X obj 101 789 *~ 0.01;
#X obj 23 768 r~ nz;
#X obj 97 767 r~ nz;
#X obj 31 808 dac~ 17;
#X obj 99 809 dac~ 18;
#X text 872 321 http://servando.teks.no;
#X connect 0 0 26 0;
#X connect 1 0 0 0;
#X connect 3 0 4 1;
#X connect 4 0 2 0;
#X connect 5 0 6 1;
#X connect 6 0 19 0;
#X connect 7 0 8 1;
#X connect 8 0 20 0;
#X connect 9 0 10 1;
#X connect 10 0 21 0;
#X connect 11 0 12 1;
#X connect 12 0 22 0;
#X connect 13 0 14 1;
#X connect 14 0 23 0;
#X connect 15 0 16 1;
#X connect 16 0 24 0;
#X connect 17 0 18 1;
#X connect 18 0 25 0;
#X connect 27 0 4 0;
#X connect 28 0 6 0;
#X connect 29 0 8 0;
#X connect 30 0 10 0;
#X connect 31 0 12 0;
#X connect 32 0 14 0;
#X connect 33 0 16 0;
#X connect 34 0 18 0;
#X connect 35 0 36 1;
#X connect 36 0 38 0;
#X connect 37 0 36 0;
#X connect 39 0 41 0;
#X connect 40 0 39 0;
#X connect 41 0 42 0;
#X connect 42 0 43 0;
#X connect 42 1 44 0;
#X connect 43 0 45 0;
#X connect 44 0 45 0;
#X connect 54 0 55 1;
#X connect 55 0 60 0;
#X connect 56 0 57 1;
#X connect 57 0 61 0;
#X connect 58 0 55 0;
#X connect 59 0 57 0;
#X connect 62 0 63 1;
#X connect 63 0 68 0;
#X connect 64 0 65 1;
#X connect 65 0 69 0;
#X connect 66 0 63 0;
#X connect 67 0 65 0;
#X connect 70 0 71 1;
#X connect 71 0 76 0;
#X connect 72 0 73 1;
#X connect 73 0 77 0;
#X connect 74 0 71 0;
#X connect 75 0 73 0;
#X connect 78 0 79 1;
#X connect 79 0 84 0;
#X connect 80 0 81 1;
#X connect 81 0 85 0;
#X connect 82 0 79 0;
#X connect 83 0 81 0;
